<svg xmlns="http://www.w3.org/2000/svg" viewBox="0 0 280 280" role="img" aria-labelledby="title desc">
  <title id="title">Glow 99.1 FM Akure Logo</title>
  <desc id="desc">Stylised radio beacon forming the letter O in Glow with station frequency text below.</desc>
  <rect width="280" height="280" fill="#ffffff" />
<defs>
    <linearGradient id="glow-warm" x1="0%" x2="100%" y1="0%" y2="0%">
      <stop offset="0%" stop-color="#FF6B00" />
      <stop offset="100%" stop-color="#FF9B36" />
    </linearGradient>
    <linearGradient id="glow-cool" x1="0%" x2="100%" y1="100%" y2="0%">
      <stop offset="0%" stop-color="#1D2F6F" />
      <stop offset="100%" stop-color="#0F1540" />
    </linearGradient>
  </defs>

  <g transform="translate(60 25)">
    <circle cx="80" cy="90" r="26" fill="url(#glow-warm)" />
    <circle cx="80" cy="90" r="8" fill="#0F1540" />
    <line x1="80" y1="90" x2="32" y2="22" stroke="#0F1540" stroke-width="7" stroke-linecap="round" />
    <circle cx="32" cy="22" r="7" fill="#0F1540" />

    <path d="M84 32 C126 26 160 46 182 86" fill="none" stroke="url(#glow-warm)" stroke-width="16" stroke-linecap="round" />
    <path d="M84 52 C118 48 146 64 164 94" fill="none" stroke="url(#glow-warm)" stroke-width="12" stroke-linecap="round" />
    <path d="M84 70 C110 68 132 80 144 102" fill="none" stroke="url(#glow-warm)" stroke-width="9" stroke-linecap="round" />
  </g>

  <g transform="translate(0 140)" fill="url(#glow-cool)">
    <path d="M30 60 C30 30 56 10 86 10 H130 V28 H88 C70 28 56 38 56 60 C56 82 70 92 88 92 H130 V110 H86 C56 110 30 90 30 60 Z" />
    <path d="M140 10 H168 V62 C168 78 176 86 190 86 C204 86 212 78 212 62 V10 H240 V64 C240 98 218 120 190 120 C162 120 140 98 140 64 V10 Z" />
    <path d="M256 60 C256 26 280 10 304 10 C320 10 332 16 340 26 V10 H368 V118 H340 V102 C332 112 320 118 304 118 C280 118 256 94 256 60 Z M284 60 C284 78 296 92 312 92 C328 92 340 78 340 60 C340 42 328 28 312 28 C296 28 284 42 284 60 Z" />
    <circle cx="394" cy="94" r="16" />
  </g>

  <text x="140" y="260" text-anchor="middle" font-family="'Space Grotesk', 'Poppins', 'Segoe UI', sans-serif" font-size="32" fill="#0F1540" letter-spacing="0.1em">99.1 FM AKURE</text>
</svg>

